<svg id="Components_Icons_Other_user" data-name="Components/Icons/Other/user" xmlns="http://www.w3.org/2000/svg" width="24" height="24" viewBox="0 0 24 24">
  <defs>
    <style>
      .cls-1 {
        fill: #fff;
      }
    </style>
  </defs>
  <path id="Combined_Shape" data-name="Combined Shape" class="cls-1" d="M4,8A4,4,0,1,1,8,4,4,4,0,0,1,4,8ZM4,2A2,2,0,1,0,6,4,2,2,0,0,0,4,2Z" transform="translate(8 3)"/>
  <path id="Path" class="cls-1" d="M10,3A1,1,0,0,0,9,2H3A1,1,0,0,0,2,3V9H0V3A3,3,0,0,1,3,0H9a3,3,0,0,1,3,3V9H10Z" transform="translate(6 12)"/>
</svg>
