<svg id="Components_Icons_Devices_smartphone-chip" data-name="Components/Icons/Devices/smartphone-chip" xmlns="http://www.w3.org/2000/svg" width="24" height="24" viewBox="0 0 24 24">
  <path id="Combined_Shape" data-name="Combined Shape" d="M14,21a1,1,0,0,1,.948-1H15a1,1,0,1,1-1,1Zm-3,1h0a1,1,0,1,1,0-2h0a1,1,0,0,1,0,2ZM6,21a1,1,0,0,1,.948-1H7a1,1,0,1,1-1,1Zm0-2a3,3,0,0,1-3-3V6A3,3,0,0,1,6,3H16a3,3,0,0,1,3,3V16a3,3,0,0,1-3,3ZM5,6V16a1,1,0,0,0,1,1H16a1,1,0,0,0,1-1V6a1,1,0,0,0-1-1H6A1,1,0,0,0,5,6Zm15,9a1,1,0,1,1,1,1A1,1,0,0,1,20,15ZM0,15a1,1,0,1,1,1,1A1,1,0,0,1,0,15Zm15,0H7V7h8v8h0ZM9,13h4V9H9Zm11-2a1,1,0,1,1,1,1A1,1,0,0,1,20,11ZM0,11a1,1,0,1,1,1,1A1,1,0,0,1,0,11ZM20,7a1,1,0,1,1,1,1A1,1,0,0,1,20,7ZM0,7A1,1,0,1,1,1,8,1,1,0,0,1,0,7ZM14,1a1,1,0,1,1,1,1A1,1,0,0,1,14,1ZM10,1a1,1,0,1,1,1,1A1,1,0,0,1,10,1ZM6,1A1,1,0,1,1,7,2,1,1,0,0,1,6,1Z" transform="translate(1 1)" fill="#fff"/>
</svg>
