<svg xmlns="http://www.w3.org/2000/svg" viewBox="0 0 393.85 393.85"><title>Asset 3</title><g id="Layer_2" data-name="Layer 2"><g id="Layer_1-2" data-name="Layer 1"><circle cx="196.92" cy="196.92" r="196.92" style="fill:#ffc107"/><path d="M297.07,166.25V68.45h-81v53.24h-43.4V68.45H91.05v47.46L73.11,113,54.87,146.32l18.24,35q9,1.78,18.52,3.23V325.4H173.8V243.22c14.64-.18,29.1-.41,43-.77V325.4h79.27V237.55A209.1,209.1,0,0,0,316.74,234L339,197.07l-22.24-34.29A101.26,101.26,0,0,1,297.07,166.25ZM111.3,87h42.83v34.72c-14.54-.94-29.23-1.78-42.83-3.86ZM92.21,135c38.08,5.71,87.82,7,144.09,5.79V87h41.09v82.76c-66,5.42-128.42,5.33-185.18-3.48ZM277.39,306.63H236.88v-64.8c14.48-.54,28.14-1.27,40.51-2.32Zm18.72-89.31q-9.12,1.41-18.72,2.47-19.36,2.16-40.51,3-9.82.41-20,.53-30.66.41-64.45-1.51V306.3H111.3V187.2c52.25,6,114.18,5.4,185.19-1.27l.58,31.25Z" style="fill:#fff"/><path d="M91.62,184.71V194.8a84.24,84.24,0,0,0,19.68,2.25v-9.72Z" style="fill:#ffdf5a"/><path d="M236.88,242v11.64q-9.82.41-20,.53V242Z" style="fill:#fff"/><path d="M236.88,242v11.64q-9.82.41-20,.53V242.45C223.65,242.37,230.33,242.22,236.88,242Z" style="fill:#ffdf5a"/><path d="M296.11,237.55v10.61q-9.12,1.41-18.72,2.47v-11C283.78,238.87,290,238.49,296.11,237.55Z" style="fill:#b3b3b3"/><path d="M296.11,237.55v10.61q-9.12,1.41-18.72,2.47v-11C283.78,238.87,290,238.49,296.11,237.55Z" style="fill:#ffdf5a"/></g></g></svg>