<svg id="Components_Icons_Devices_smartphone-ram" data-name="Components/Icons/Devices/smartphone-ram" xmlns="http://www.w3.org/2000/svg" width="24" height="24" viewBox="0 0 24 24">
  <path id="Combined_Shape" data-name="Combined Shape" d="M19,17a1,1,0,1,1,1,1A1,1,0,0,1,19,17Zm-4,0a1,1,0,1,1,1,1A1,1,0,0,1,15,17Zm-4,0a1,1,0,1,1,1,1A1,1,0,0,1,11,17ZM7,17a1,1,0,1,1,1,1A1,1,0,0,1,7,17ZM3,17a1,1,0,1,1,1,1A1,1,0,0,1,3,17Zm0-2a3,3,0,0,1-3-3V6A3,3,0,0,1,3,3H21a3,3,0,0,1,3,3v6a3,3,0,0,1-3,3ZM2,6v6a1,1,0,0,0,1,1H21a1,1,0,0,0,1-1V6a1,1,0,0,0-1-1H3A1,1,0,0,0,2,6Zm16,4a1,1,0,1,1,1,1A1,1,0,0,1,18,10ZM4,8A1,1,0,1,1,5,9,1,1,0,0,1,4,8ZM19,1a1,1,0,1,1,1,1A1,1,0,0,1,19,1ZM15,1a1,1,0,1,1,1,1A1,1,0,0,1,15,1ZM11,1a1,1,0,1,1,1,1A1,1,0,0,1,11,1ZM7,1A1,1,0,1,1,8,2,1,1,0,0,1,7,1ZM3,1A1,1,0,1,1,4,2,1,1,0,0,1,3,1Z" transform="translate(0 3)" fill="#fff"/>
</svg>
