<svg id="Components_Icons_Other_Setting" data-name="Components/Icons/Other/Setting" xmlns="http://www.w3.org/2000/svg" width="24" height="24" viewBox="0 0 24 24">
  <defs>
    <style>
      .cls-1 {
        fill: #fff;
      }
    </style>
  </defs>
  <path id="Shape" class="cls-1" d="M7.8,20a1,1,0,0,1-.947-.682l-.61-1.83a1,1,0,0,0-1.15-.66l-1.879.38a1,1,0,0,1-1.07-.481l-2-3.46a1,1,0,0,1,.1-1.17l1.27-1.44a1,1,0,0,0,0-1.32L.244,7.9a1,1,0,0,1-.1-1.17l2-3.46a1,1,0,0,1,1-.48l1.93.38a1,1,0,0,0,1.15-.661l.56-1.83A1,1,0,0,1,7.731,0h4.053a1,1,0,0,1,.95.68l.61,1.83a1,1,0,0,0,1.15.661l1.88-.38a1,1,0,0,1,1.07.48l2,3.46a1,1,0,0,1-.12,1.17l-1.281,1.44a1,1,0,0,0,0,1.32l1.35,1.44a1,1,0,0,1,.121,1.17l-2,3.46a1,1,0,0,1-1.069.481l-1.88-.38a1,1,0,0,0-1.15.66l-.61,1.83a1,1,0,0,1-.947.68H7.8ZM5.3,14.8a2.992,2.992,0,0,1,2.846,2.061L8.5,18h2.561l.38-1.121a3,3,0,0,1,3.45-2l1.18.24,1.281-2.22-.8-.9a3,3,0,0,1,0-3.98l.8-.9L16.073,4.9l-1.18.24a3.017,3.017,0,0,1-.6.061,2.993,2.993,0,0,1-2.848-2.062L11.064,2H8.5l-.38,1.129A2.994,2.994,0,0,1,5.276,5.193a3.016,3.016,0,0,1-.6-.061l-1.18-.24-1.281,2.2.8.9a3,3,0,0,1,0,4l-.8.9,1.3,2.209,1.18-.239A3.014,3.014,0,0,1,5.3,14.8ZM9.784,14a4,4,0,1,1,4-4A4,4,0,0,1,9.784,14Zm0-6a2,2,0,1,0,2,2A2,2,0,0,0,9.784,8Z" transform="translate(2 2)"/>
</svg>
