<svg id="Components_Icons_Other_user-add" data-name="Components/Icons/Other/user-add" xmlns="http://www.w3.org/2000/svg" width="24" height="24" viewBox="0 0 24 24">
  <defs>
    <style>
      .cls-1 {
        fill: #fff;
      }
    </style>
  </defs>
  <path id="Combined_Shape" data-name="Combined Shape" class="cls-1" d="M10,18V12a1,1,0,0,0-1-1H3a1,1,0,0,0-1,1v6H0V12A3,3,0,0,1,3,9H9a3,3,0,0,1,3,3v6Zm6-8V8H14V6h2V4h2V6h2V8H18v2ZM2,4A4,4,0,1,1,6,8,4,4,0,0,1,2,4ZM4,4A2,2,0,1,0,6,2,2,2,0,0,0,4,4Z" transform="translate(2 3)"/>
</svg>
