<svg xmlns="http://www.w3.org/2000/svg" viewBox="0 0 1147 993.58"><defs><style>.cls-1{font-size:120px;fill:#29abe2;font-family:Ubuntu-Bold, Ubuntu;font-weight:700;}.cls-2,.cls-4{fill:#fff;}.cls-3{fill:none;}.cls-3,.cls-4{stroke:#29abe2;stroke-miterlimit:10;stroke-width:40px;}</style></defs><g id="Layer_2" data-name="Layer 2"><g id="Layer_1-2" data-name="Layer 1"><text class="cls-1" transform="translate(193.62 967.06)">Xtorage.cloud</text><path class="cls-2" d="M998.52,328.64C984.61,197.32,873.51,95,738.5,95a260.33,260.33,0,0,0-110.69,24.54A261,261,0,0,0,422.5,20C297.28,20,192.64,108,167,225.55,79,278.19,20,374.45,20,484.5,20,650.85,154.72,785.72,321,786H884c134.21,0,243-108.79,243-243A243,243,0,0,0,998.52,328.64Z"/><path class="cls-3" d="M998.52,328.64C984.61,197.32,873.51,95,738.5,95a260.33,260.33,0,0,0-110.69,24.54A261,261,0,0,0,422.5,20C297.28,20,192.64,108,167,225.55,79,278.19,20,374.45,20,484.5,20,650.85,154.72,785.72,321,786H884c134.21,0,243-108.79,243-243A243,243,0,0,0,998.52,328.64Z"/><path class="cls-4" d="M572.71,335.08,380.45,449.78a35.63,35.63,0,0,0-17.37,31.1l3.2,223.86a35.65,35.65,0,0,0,18.25,30.59L580,844.48a35.61,35.61,0,0,0,35.62-.51l192.26-114.7a35.62,35.62,0,0,0,17.37-31.1l-3.2-223.85a35.65,35.65,0,0,0-18.25-30.6L608.33,334.57A35.61,35.61,0,0,0,572.71,335.08Z"/><circle class="cls-3" cx="995" cy="583" r="48"/><line class="cls-3" x1="825" y1="583" x2="959" y2="583"/><circle class="cls-3" cx="186" cy="583" r="48"/><line class="cls-3" x1="356" y1="583" x2="222" y2="583"/></g></g></svg>