<svg xmlns="http://www.w3.org/2000/svg" xmlns:xlink="http://www.w3.org/1999/xlink" viewBox="0 0 31.05 16.2"><defs><style>.cls-1{fill:#fff;stroke:#3f1c54;stroke-miterlimit:10;stroke-width:0.5px;}.cls-2{fill:#4471b7;}.cls-3{fill:url(#linear-gradient);}.cls-4{isolation:isolate;font-size:4.22px;fill:#5d5d65;font-family:Ubuntu-Light, Ubuntu;font-weight:300;}</style><linearGradient id="linear-gradient" x1="-1.95" y1="22.58" x2="4.82" y2="22.58" gradientTransform="translate(-9.57 -3.6) rotate(-45)" gradientUnits="userSpaceOnUse"><stop offset="0.22" stop-color="#7157a5"/><stop offset="1" stop-color="#4e2e87"/></linearGradient></defs><title>Asset 4</title><g id="Layer_2" data-name="Layer 2"><g id="Layer_1-2" data-name="Layer 1"><rect class="cls-1" x="0.25" y="0.25" width="30.55" height="15.7" rx="6.2"/><g id="Page-1"><g id="FAQ_d" data-name="FAQ d"><g id="Nav"><g id="dStor_Logo_primary" data-name="dStor Logo primary"><path id="Path" class="cls-2" d="M14.56,8.41a.38.38,0,0,1,.14-.33A.59.59,0,0,1,15.06,8l.29,0,.12.12v2l1.21,0a.54.54,0,0,1,.4.11.55.55,0,0,1,.11.33l-.05.27-.11.11h-1.6l0,1.87a.9.9,0,0,0,.08.36.39.39,0,0,0,.19.19.46.46,0,0,0,.17.17,1,1,0,0,0,.3.05,1.16,1.16,0,0,0,.45-.08l.3-.14.38.63-.16.15-.3.15a1.25,1.25,0,0,1-.39.11,3.55,3.55,0,0,1-.47.06A1.45,1.45,0,0,1,14.84,14a1.36,1.36,0,0,1-.39-1Z"/><path id="Shape" class="cls-2" d="M20.05,9.9a2.57,2.57,0,0,1,.91.16,2.22,2.22,0,0,1,0,4.12,2.49,2.49,0,0,1-1.82,0,2.34,2.34,0,0,1-.73-.47,1.9,1.9,0,0,1-.48-.71,2.16,2.16,0,0,1,0-1.76,1.81,1.81,0,0,1,.47-.69,2.17,2.17,0,0,1,.74-.49A2.81,2.81,0,0,1,20.05,9.9Zm0,3.59a1.07,1.07,0,0,0,.53-.1,1.26,1.26,0,0,0,.35-.34,2.13,2.13,0,0,0,.27-.46,1.64,1.64,0,0,0,0-1.07,1.92,1.92,0,0,0-.27-.46,1.26,1.26,0,0,0-.35-.34,1.42,1.42,0,0,0-1.07,0,1.37,1.37,0,0,0-.34.34,1.08,1.08,0,0,0-.27.46,1.52,1.52,0,0,0,0,1.07,1.08,1.08,0,0,0,.27.46,1.37,1.37,0,0,0,.34.34,1.35,1.35,0,0,0,.52.11Z"/><path id="Shape-2" class="cls-3" d="M8.73,8a1.36,1.36,0,0,0-.29,0A.69.69,0,0,0,8.08,8a.38.38,0,0,0-.14.33l0,1.9A2.82,2.82,0,0,0,7.5,10a2.68,2.68,0,0,0-.8,0,2.78,2.78,0,0,0-.91,0,2.7,2.7,0,0,0-.74.46,2.27,2.27,0,0,0-.49.7,2.46,2.46,0,0,0,0,1.77,2.27,2.27,0,0,0,.49.7,2.64,2.64,0,0,0,1.65.65,2.33,2.33,0,0,0,.9-.18,2.2,2.2,0,0,0,.75-.47,2.27,2.27,0,0,0,.49-.7A2.36,2.36,0,0,0,9,12.07V8ZM7.8,12.62a1.3,1.3,0,0,1-.35.35,1,1,0,0,1-.36.36,1.31,1.31,0,0,1-.52.11,1.4,1.4,0,0,1-.5,0,1.53,1.53,0,0,1-.71-.71,1.49,1.49,0,0,1,0-1.1,1.53,1.53,0,0,1,.71-.71,1.61,1.61,0,0,1,.54-.09,1.3,1.3,0,0,1,.51.11,1.06,1.06,0,0,1,.37.36,1.34,1.34,0,0,1,.26.43,1.54,1.54,0,0,1,.1.56,1.21,1.21,0,0,1,0,.38Z"/><path id="Path-2" class="cls-2" d="M23.05,11.55a1.47,1.47,0,0,1,.47-1.19,1.89,1.89,0,0,1,1.31-.43,2.28,2.28,0,0,1,.86.14.52.52,0,0,1,.39.4.48.48,0,0,1-.07.26l-.16.16a2.06,2.06,0,0,0-.35-.12A2.42,2.42,0,0,0,25,10.7a.91.91,0,0,0-1,.79,1,1,0,0,0,0,.24v2.42h-.94Z"/><path id="Path-3" class="cls-2" d="M13.52,11.87a1.84,1.84,0,0,0-.52-.52,6,6,0,0,0-1-.54,3.92,3.92,0,0,1-.85-.41,1,1,0,0,1-.33-.33,1,1,0,0,1-.11-.42A.76.76,0,0,1,11,9.07a1.19,1.19,0,0,1,.74-.21l.44,0a2.84,2.84,0,0,1,.47.15,1.31,1.31,0,0,1,.36.21,1.89,1.89,0,0,1,.2.2l.22-.22a.83.83,0,0,0,.1-.34.5.5,0,0,0-.08-.27.58.58,0,0,0-.19-.19l-.16-.16a1.22,1.22,0,0,0-.33-.14,1.76,1.76,0,0,0-.5-.13,3.71,3.71,0,0,0-.47,0,2.53,2.53,0,0,0-1.4.33,1.47,1.47,0,0,0-.55,1.25,1.62,1.62,0,0,0,.34,1.06,2.74,2.74,0,0,0,1.2.79,4.32,4.32,0,0,1,1.08.58.79.79,0,0,1,.29.6.69.69,0,0,1-.3.61,1.37,1.37,0,0,1-.9.24,6.56,6.56,0,0,1-.89-.11l-.51-.16L9.8,14a3.86,3.86,0,0,0,1.68.3,2.63,2.63,0,0,0,1.67-.47,1.57,1.57,0,0,0,.59-1.29A1.52,1.52,0,0,0,13.52,11.87Z"/><polygon id="Path-4" class="cls-2" points="26.26 10.2 26.21 10.22 26.21 9.93 26.12 9.93 26.12 9.9 26.35 9.89 26.34 9.93 26.26 9.95 26.26 10.2"/><path id="Path-5" class="cls-2" d="M26.52,10.22,26.45,10h0V9.63h0l.07.27h0l.18-.17h0V10h0V9.89h0l-.1.25Z"/></g></g></g></g><text class="cls-4" transform="translate(4.33 5.44)">SECURE ON</text></g></g></svg>